PathFileType	4	(X/Y/Z)	D:\Share\Shared_Data\Ergonomics\Sit To Stand Pertubation\S3\Unperturbed.trc
DataRate	CameraRate	NumFrames	NumMarkers	Units	OrigDataRate	OrigDataStartFrame	OrigNumFrames	
100	100	14	18	m	100	2160	211
Frame#	Time	R_Thigh			R_ASIS			R_Pelvis			V_Sacral			L_Pelvis			L_ASIS			Clavical			R_Acromium			L_Acromium			Sternum			Torso			R_Thigh_Med			R_Thigh_Lat			R_Shank_Med			R_Shank_Lat			R_Shank			R_Heel			R_Toe			
		X1	Y1	Z1	X2	Y2	Z2	X3	Y3	Z3	X4	Y4	Z4	X5	Y5	Z5	X6	Y6	Z6	X7	Y7	Z7	X8	Y8	Z8	X9	Y9	Z9	X10	Y10	Z10	X11	Y11	Z11	X12	Y12	Z12	X13	Y13	Z13	X14	Y14	Z14	X15	Y15	Z15	X16	Y16	Z16	X17	Y17	Z17	X18	Y18	Z18	

2160	21.59	0.14383014	0.58026318	0.10619043	-0.01008219	0.63817041	0.13931633	-0.11824529	0.6346767	0.19344368	-0.2271884	0.64640466	0.0080189095	-0.11676588	0.65998022	-0.19802524	-0.0091560488	0.64823932	-0.14014108	0.057343918	1.010896	-0.0033991191	0.033002586	1.0815457	0.16586267	0.026462378	1.0751456	-0.15695592	0.05864785	0.92988965	0.001766714	0.055481113	0.99403754	-0.066573898	0.32901346	0.46926669	0.075235054	0.31015396	0.45007779	0.19242538	0.25715381	0.10782379	0.094273659	0.23511636	0.098922333	0.17415883	0.25420564	0.27349951	0.19756285	0.17934497	0.057204617	0.12682685	0.39711182	0.052158215	0.13493739
2161	21.6	0.1437993	0.58021991	0.10617059	-0.0090957088	0.6374668	0.13925153	-0.1172396	0.63520325	0.19347223	-0.22599857	0.64785095	0.0080263433	-0.1156429	0.66046674	-0.19803386	-0.0080107689	0.64775909	-0.14022861	0.063431583	1.009287	-0.0033169889	0.040040939	1.0801346	0.16567497	0.033132366	1.0737719	-0.1570264	0.063663059	0.92783185	0.001552302	0.06123061	0.99225201	-0.066724525	0.32892068	0.46924655	0.075377899	0.30997546	0.45009256	0.19254547	0.2571221	0.10784953	0.094338974	0.23515694	0.098923386	0.17421716	0.25406253	0.27351688	0.19765808	0.17931665	0.057569012	0.12716991	0.39706097	0.052618324	0.13511604
2162	21.61	0.14377451	0.58017902	0.10612327	-0.0080050898	0.63672766	0.13921632	-0.11620875	0.63575476	0.19347701	-0.22469305	0.64938239	0.0079798961	-0.11441203	0.66095575	-0.19805736	-0.006745429	0.64722888	-0.14034259	0.069836212	1.0075112	-0.0032694316	0.047376755	1.0785889	0.16548251	0.040202179	1.0723137	-0.1570793	0.068934059	0.92557831	0.0013415487	0.067255653	0.99032025	-0.066871925	0.32881082	0.46921533	0.075493523	0.30978265	0.45010867	0.19264069	0.25709079	0.10787407	0.094407295	0.23518402	0.098913193	0.17428079	0.25391701	0.27353305	0.1977485	0.1792966	0.057805756	0.12741439	0.3970116	0.053199696	0.13533026
2163	21.62	0.14375128	0.58013873	0.10604589	-0.0068219509	0.6359458	0.13921182	-0.11514986	0.63633374	0.19345831	-0.22325661	0.65101093	0.0078791213	-0.113062	0.66144604	-0.19809285	-0.0053420677	0.64664569	-0.14048555	0.076552155	1.0055732	-0.0032464101	0.05501403	1.07691	0.16528224	0.047671379	1.0707478	-0.15711363	0.074470863	0.9231438	0.0011462996	0.073570557	0.98824536	-0.067008842	0.32868076	0.46917303	0.075580299	0.30957227	0.45012448	0.19270859	0.25705722	0.1078952	0.094476898	0.23518088	0.098902359	0.17434306	0.25376445	0.27354593	0.19783182	0.17928394	0.057858379	0.12751559	0.39696185	0.053838062	0.13555682
2164	21.63	0.14372174	0.5800946	0.10593323	-0.0055431719	0.63511621	0.13924051	-0.11405573	0.63694385	0.19341695	-0.22167094	0.65274701	0.0077244763	-0.11157771	0.66193695	-0.19813702	-0.0037786274	0.64600598	-0.14066081	0.083569588	1.0034792	-0.0032398567	0.062952251	1.0751031	0.16506929	0.055536366	1.0690511	-0.15712918	0.080286575	0.92057172	0.0009855839	0.080197533	0.98603583	-0.067122581	0.32852844	0.46911938	0.075638817	0.3093407	0.45013733	0.19274937	0.25701767	0.10791061	0.094545547	0.23513815	0.098893951	0.17439949	0.25359898	0.2735538	0.19790565	0.17927655	0.057690441	0.12744602	0.3969082	0.054447639	0.13576534
2165	21.64	0.14367592	0.580039	0.10577793	-0.0041521139	0.63423712	0.13930487	-0.11291379	0.63758905	0.19335432	-0.21991492	0.65459875	0.007517077	-0.10993945	0.66242902	-0.19818861	-0.0020325503	0.64530566	-0.14087215	0.090874413	1.0012375	-0.0032450652	0.071186157	1.0731776	0.1648371	0.06379047	1.0672083	-0.15712569	0.086393929	0.91792395	0.00088233185	0.087154175	0.9837038	-0.067200294	0.32835355	0.46905316	0.075672295	0.30908414	0.45014352	0.19276648	0.2569675	0.10791822	0.094611053	0.23505267	0.098886688	0.17444644	0.25341412	0.27355484	0.19796785	0.17927126	0.057284515	0.12719395	0.39684732	0.054965862	0.13593137
2166	21.65	0.14360603	0.57996362	0.10557423	-0.0026230435	0.63330902	0.13940642	-0.11170605	0.63827448	0.19327263	-0.2179651	0.65657184	0.0072587361	-0.10812241	0.66292517	-0.19824913	-8.5827485e-05	0.64453705	-0.14112325	0.098448654	0.99885699	-0.003259953	0.079706612	1.0711462	0.16457806	0.072424507	1.0652146	-0.15710251	0.092799118	0.91525586	0.00085699028	0.094444481	0.98126294	-0.067233231	0.32815836	0.46897263	0.075686974	0.3088002	0.45013879	0.19276678	0.25690164	0.1079165	0.094671402	0.23492476	0.098878624	0.17448012	0.25320399	0.27354678	0.19801689	0.17926321	0.056651993	0.12677041	0.39677856	0.05537521	0.1360435
2167	21.66	0.14351204	0.57986218	0.10532121	-0.00093163145	0.63233197	0.13954543	-0.11040829	0.63900659	0.19317505	-0.21579747	0.65866943	0.0069528131	-0.10609663	0.66343097	-0.1983237	0.0020691628	0.64368848	-0.14141707	0.1062719	0.99634937	-0.0032835677	0.088501564	1.0690278	0.16428455	0.081427597	1.0630763	-0.15705902	0.099496819	0.9126026	0.00092282104	0.10205797	0.97872662	-0.067217827	0.32794763	0.46887622	0.075692429	0.30848969	0.45011935	0.19276089	0.2568157	0.10790502	0.094724831	0.23475694	0.098868103	0.17449756	0.2529644	0.27352673	0.19805267	0.17924615	0.055853706	0.12622592	0.39670389	0.055691444	0.13610168
2168	21.67	0.14340475	0.57973462	0.10502266	0.00093442285	0.63130304	0.13972142	-0.10898879	0.63979315	0.19306534	-0.21338861	0.66089148	0.0066049848	-0.10382816	0.66395441	-0.19842316	0.0044244618	0.64274384	-0.14175557	0.11432313	0.99372852	-0.0033156745	0.097556511	1.0668462	0.16394907	0.090787712	1.0608069	-0.15699474	0.10646841	0.90997998	0.0010824074	0.10997085	0.97610638	-0.067155884	0.32772949	0.46876254	0.07570192	0.30815939	0.45008255	0.19276337	0.25670645	0.1078847	0.094770203	0.23455524	0.098853065	0.17449799	0.25269418	0.2734913	0.19807768	0.1792137	0.05500597	0.12565605	0.39662546	0.05594405	0.13611299
2169	21.68	0.14330569	0.57958978	0.10468514	0.0029763491	0.63021796	0.13993211	-0.10740883	0.64064246	0.19294823	-0.21071672	0.66323608	0.0062230597	-0.10128194	0.66450476	-0.19856322	0.0069581432	0.64168408	-0.14213962	0.12258309	0.99101013	-0.0033562291	0.10685503	1.0646299	0.16356554	0.10049281	1.0584271	-0.15690924	0.11368195	0.90738477	0.0013213358	0.11814591	0.97341101	-0.067054794	0.32751553	0.46863065	0.075732918	0.30782333	0.45002737	0.19279265	0.2565726	0.10785783	0.094807083	0.23433072	0.098829948	0.17448416	0.25239658	0.27343741	0.19809802	0.17916177	0.054244797	0.125172	0.39654401	0.056164532	0.13608788
2170	21.69	0.14324545	0.57944537	0.10431673	0.0051946111	0.62907562	0.14017221	-0.10562511	0.64156268	0.19282901	-0.20776225	0.66570074	0.0058155961	-0.098425705	0.66509113	-0.19875792	0.0096477547	0.64049408	-0.14256836	0.13103714	0.98821271	-0.0034034021	0.11637987	1.062411	0.16312971	0.11053199	1.0559628	-0.1568015	0.12109258	0.90478815	0.0015984607	0.12653598	0.97064618	-0.066927849	0.3273212	0.46848068	0.075807419	0.30750189	0.44995331	0.19287125	0.25641556	0.10782778	0.094835754	0.23409731	0.098794762	0.17446135	0.25208089	0.27336301	0.19812335	0.17908954	0.053690102	0.12487087	0.39645956	0.056380974	0.13603783
2171	21.7	0.1432616	0.57932764	0.10392742	0.0075967169	0.6278811	0.14043294	-0.10359301	0.64256122	0.19271259	-0.20450789	0.66828394	0.0053899217	-0.095233467	0.66571967	-0.19901263	0.012489488	0.63917053	-0.14303825	0.13967616	0.98535663	-0.0034524338	0.12611398	1.0602219	0.16263947	0.12089616	1.0534425	-0.15666821	0.12864784	0.90213519	0.0018436438	0.1350937	0.9678205	-0.066791893	0.32716626	0.46831409	0.075952087	0.30721945	0.44985907	0.19302531	0.25623987	0.10779832	0.094857407	0.23386673	0.098746254	0.17443425	0.25176292	0.27326688	0.19816655	0.17899939	0.053427803	0.12482038	0.39637238	0.056615005	0.13597446
2172	21.71	0.14339622	0.57927081	0.10353049	0.010197817	0.62664703	0.14070268	-0.10127034	0.64364301	0.19260228	-0.20093759	0.67098621	0.0049513588	-0.091687904	0.66639508	-0.1993231	0.015509037	0.63772668	-0.14354321	0.14849135	0.98246216	-0.0034975462	0.1360417	1.058092	0.16209419	0.13157751	1.0508961	-0.15650211	0.13630736	0.89936975	0.0019829425	0.14378311	0.96495007	-0.066661186	0.32707443	0.46813385	0.076197701	0.3070015	0.44974072	0.19328348	0.25605453	0.10777305	0.094874512	0.2336467	0.098686691	0.17440562	0.25146318	0.27314877	0.19824289	0.17889708	0.053457092	0.12501385	0.39628308	0.056879776	0.13591002
2173	21.72	0.14369316	0.57931403	0.10314454	0.013017301	0.62539282	0.14096857	-0.098620979	0.64481213	0.19249962	-0.19703668	0.67381079	0.004504869	-0.087782089	0.66712268	-0.19968141	0.01875753	0.63619147	-0.14407629	0.15746834	0.97954816	-0.0035346866	0.14614963	1.0560454	0.16149489	0.14256787	1.0483534	-0.1562924	0.14407147	0.89647821	0.0019834535	0.15258984	0.96205969	-0.066541199	0.32707251	0.4679437	0.076577164	0.30687332	0.44959109	0.19367419	0.25587291	0.10775481	0.094890945	0.23344244	0.098619621	0.17437764	0.25120457	0.27300763	0.19836896	0.17879137	0.053646603	0.12533337	0.39619324	0.057178452	0.13585837
